<svg width="83" height="55" viewBox="0 0 83 55" fill="none" xmlns="http://www.w3.org/2000/svg">
  <g filter="url(#filter0_d_203_40)">
    <path
      d="M78 26.5C78 36.7173 69.9411 45 60 45C50.0589 45 42 36.7173 42 26.5C42 16.2827 50.0589 8 60 8C69.9411 8 78 16.2827 78 26.5ZM48.2199 26.5C48.2199 33.1867 53.494 38.6074 60 38.6074C66.506 38.6074 71.7801 33.1867 71.7801 26.5C71.7801 19.8133 66.506 14.3926 60 14.3926C53.494 14.3926 48.2199 19.8133 48.2199 26.5Z"
      fill="#fff" />
    <path
      d="M42 26.5C42 36.7173 33.9411 45 24 45C14.0589 45 6 36.7173 6 26.5C6 16.2827 14.0589 8 24 8C33.9411 8 42 16.2827 42 26.5ZM12.2199 26.5C12.2199 33.1867 17.494 38.6074 24 38.6074C30.506 38.6074 35.7801 33.1867 35.7801 26.5C35.7801 19.8133 30.506 14.3926 24 14.3926C17.494 14.3926 12.2199 19.8133 12.2199 26.5Z"
      fill="#fff" />
    <path
      d="M67 27C67 30.866 63.866 34 60 34C56.134 34 53 30.866 53 27C53 23.134 56.134 20 60 20C63.866 20 67 23.134 67 27Z"
      fill="#fff" />
    <path
      d="M31 27C31 30.866 27.866 34 24 34C20.134 34 17 30.866 17 27C17 23.134 20.134 20 24 20C27.866 20 31 23.134 31 27Z"
      fill="#fff" />
    <path
      d="M64 9.33023C64 14.4832 54.1503 6.06465 42 6.06465C29.8497 6.06465 20 14.4832 20 9.33023C20 4.17729 29.8497 0 42 0C54.1503 0 64 4.17729 64 9.33023Z"
      fill="#fff" />
    <path d="M4.85168 6.36625L20.7252 7.28559L18.3005 14.8482L4.85168 6.36625Z" fill="#fff" />
    <path d="M78.4901 5.9737L65.5543 14.7982L62.8404 6.51611L78.4901 5.9737Z" fill="#fff" />
    <path d="M42 46.5L35.4276 38.4794L41.7967 23.3268L47.9328 38.6246L42 46.5Z" fill="#fff" />
  </g>
  <defs>
    <filter id="filter0_d_203_40" x="0.851677" y="0" width="81.6384" height="54.5" filterUnits="userSpaceOnUse"
      color-interpolation-filters="sRGB">
      <feFlood flood-opacity="0" result="BackgroundImageFix" />
      <feColorMatrix in="SourceAlpha" type="matrix" values="0 0 0 0 0 0 0 0 0 0 0 0 0 0 0 0 0 0 127 0"
        result="hardAlpha" />
      <feOffset dy="4" />
      <feGaussianBlur stdDeviation="2" />
      <feComposite in2="hardAlpha" operator="out" />
      <feColorMatrix type="matrix" values="0 0 0 0 0 0 0 0 0 0 0 0 0 0 0 0 0 0 0.25 0" />
      <feBlend mode="normal" in2="BackgroundImageFix" result="effect1_dropShadow_203_40" />
      <feBlend mode="normal" in="SourceGraphic" in2="effect1_dropShadow_203_40" result="shape" />
    </filter>
  </defs>
</svg>