<svg width="96" height="92" viewBox="0 0 96 92" fill="#fff" xmlns="http://www.w3.org/2000/svg">
  <path d="M62.4062 12.4946C62.4062 19.3952 56.2044 24.9892 48.5541 24.9892C40.9038 24.9892 34.702 19.3952 34.702 12.4946C34.702 5.59402 40.9038 0 48.5541 0C56.2044 0 62.4062 5.59402 62.4062 12.4946Z" fill="#fff"/>
  <path d="M48.5233 30.4868C53.4149 30.4868 60.4335 26.9883 60.4335 26.9883C60.4335 26.9883 66.0211 30.0604 68.5011 32.9857C70.5584 35.4126 71.338 37.0758 72.3797 39.9827C74.5093 45.9257 72.3797 55.9758 72.3797 55.9758H23.6203C23.6203 55.9758 21.4907 45.9257 23.6203 39.9827C24.662 37.0758 25.3948 35.3797 27.4989 32.9857C30.236 29.8716 36.6132 26.9883 36.6132 26.9883C36.6132 26.9883 43.6317 30.4868 48.5233 30.4868Z" fill="#fff"/>
  <path d="M48 63.9724L52.794 73.6999L64.8629 74.678L55.7569 81.668L58.4218 92L48 86.5926L37.5782 92L40.2431 81.668L31.1371 74.678L43.206 73.6999L48 63.9724Z" fill="#fff"/>
  <path d="M81.245 55.9758L85.4398 64.4482L96 65.3L88.0323 71.3881L90.3641 80.387L81.245 75.6773L72.1259 80.387L74.4577 71.3881L66.49 65.3L77.0502 64.4482L81.245 55.9758Z" fill="#fff"/>
  <path d="M14.755 55.9758L18.9498 64.4482L29.51 65.3L21.5423 71.3881L23.8741 80.387L14.755 75.6773L5.63591 80.387L7.9677 71.3881L0 65.3L10.5602 64.4482L14.755 55.9758Z" fill="#fff"/>
  </svg>
  